solid pedalsplate
facet normal 0.7933533402912355 0.6087614290087204 -2.2431691128723704e-29
  outer loop
    vertex 27.20577136594008 35.5 -270.0
    vertex 28.6360389693211 33.63603896932107 -267.0
    vertex 28.6360389693211 33.63603896932107 -270.0
  endloop
endfacet
facet normal 0.7933533402912355 0.6087614290087204 -2.2431691128723704e-29
  outer loop
    vertex 28.6360389693211 33.63603896932107 -267.0
    vertex 27.20577136594008 35.5 -270.0
    vertex 27.20577136594008 35.5 -267.0
  endloop
endfacet
facet normal 0.7933533402912355 -0.6087614290087204 -2.2431691128723704e-29
  outer loop
    vertex 28.6360389693211 46.36396103067893 -270.0
    vertex 27.20577136594008 44.5 -267.0
    vertex 27.20577136594008 44.5 -270.0
  endloop
endfacet
facet normal 0.7933533402912355 -0.6087614290087204 -2.2431691128723704e-29
  outer loop
    vertex 27.20577136594008 44.5 -267.0
    vertex 28.6360389693211 46.36396103067893 -270.0
    vertex 28.6360389693211 46.36396103067893 -267.0
  endloop
endfacet
facet normal 0.0 1.0 0.0
  outer loop
    vertex 20.000000000000032 70.0 -267.0
    vertex 50.00000000000003 70.0 -270.0
    vertex 20.000000000000032 70.0 -270.0
  endloop
endfacet
facet normal 0.0 1.0 0.0
  outer loop
    vertex 50.00000000000003 70.0 -270.0
    vertex 20.000000000000032 70.0 -267.0
    vertex 50.00000000000003 70.0 -267.0
  endloop
endfacet
facet normal -1.0 0.0 0.0
  outer loop
    vertex 20.000000000000032 70.0 -267.0
    vertex 20.000000000000032 20.0 -270.0
    vertex 20.000000000000032 20.0 -267.0
  endloop
endfacet
facet normal -1.0 0.0 0.0
  outer loop
    vertex 20.000000000000032 20.0 -270.0
    vertex 20.000000000000032 70.0 -267.0
    vertex 20.000000000000032 70.0 -270.0
  endloop
endfacet
facet normal 9.399888275159659e-17 1.0 2.6577740298602516e-45
  outer loop
    vertex 20.000000000000032 20.0 -267.0
    vertex 50.00000000000003 19.999999999999996 -270.0
    vertex 20.000000000000032 20.0 -270.0
  endloop
endfacet
facet normal 9.399888275159659e-17 1.0 2.6577740298602516e-45
  outer loop
    vertex 50.00000000000003 19.999999999999996 -270.0
    vertex 20.000000000000032 20.0 -267.0
    vertex 50.00000000000003 19.999999999999996 -267.0
  endloop
endfacet
facet normal 0.9914448613738105 0.1305261922200517 3.172320182120529e-29
  outer loop
    vertex 26.000000000000025 39.99999999999999 -270.0
    vertex 26.30666756339841 37.67062859407731 -267.0
    vertex 26.30666756339841 37.67062859407731 -270.0
  endloop
endfacet
facet normal 0.9914448613738105 0.1305261922200517 3.172320182120529e-29
  outer loop
    vertex 26.30666756339841 37.67062859407731 -267.0
    vertex 26.000000000000025 39.99999999999999 -270.0
    vertex 26.000000000000025 39.99999999999999 -267.0
  endloop
endfacet
facet normal 0.7933533402912343 -0.6087614290087219 -7.066023548197052e-32
  outer loop
    vertex 28.636038969321106 46.36396103067893 -20.000000000000007
    vertex 27.20577136594008 44.5 -17.000000000000014
    vertex 27.20577136594008 44.5 -20.000000000000007
  endloop
endfacet
facet normal 0.7933533402912343 -0.6087614290087219 -7.066023548197052e-32
  outer loop
    vertex 27.20577136594008 44.5 -17.000000000000014
    vertex 28.636038969321106 46.36396103067893 -20.000000000000007
    vertex 28.636038969321106 46.36396103067893 -17.000000000000014
  endloop
endfacet
facet normal 0.60876142900872 -0.7933533402912357 -7.773265107956165e-32
  outer loop
    vertex 30.50000000000003 47.79422863405994 -17.000000000000014
    vertex 28.636038969321106 46.36396103067893 -20.000000000000007
    vertex 30.50000000000003 47.79422863405994 -20.000000000000007
  endloop
endfacet
facet normal 0.60876142900872 -0.7933533402912357 -7.773265107956165e-32
  outer loop
    vertex 28.636038969321106 46.36396103067893 -20.000000000000007
    vertex 30.50000000000003 47.79422863405994 -17.000000000000014
    vertex 28.636038969321106 46.36396103067893 -17.000000000000014
  endloop
endfacet
facet normal -0.7933533402912354 -0.6087614290087203 -1.7092017861137918e-32
  outer loop
    vertex 41.36396103067895 46.36396103067892 -17.000000000000014
    vertex 42.79422863405998 44.49999999999999 -20.000000000000007
    vertex 42.79422863405998 44.49999999999999 -17.000000000000014
  endloop
endfacet
facet normal -0.7933533402912354 -0.6087614290087203 -1.7092017861137918e-32
  outer loop
    vertex 42.79422863405998 44.49999999999999 -20.000000000000007
    vertex 41.36396103067895 46.36396103067892 -17.000000000000014
    vertex 41.36396103067895 46.36396103067892 -20.000000000000007
  endloop
endfacet
facet normal -0.9238795325112865 -0.3826834323650908 3.609069050232309e-33
  outer loop
    vertex 42.79422863405998 44.49999999999999 -17.000000000000014
    vertex 43.693332436601644 42.329371405922686 -20.000000000000007
    vertex 43.693332436601644 42.329371405922686 -17.000000000000014
  endloop
endfacet
facet normal -0.9238795325112865 -0.3826834323650908 3.609069050232309e-33
  outer loop
    vertex 43.693332436601644 42.329371405922686 -20.000000000000007
    vertex 42.79422863405998 44.49999999999999 -17.000000000000014
    vertex 42.79422863405998 44.49999999999999 -20.000000000000007
  endloop
endfacet
facet normal -0.9914448613738105 -0.13052619222005168 2.4064203870097985e-32
  outer loop
    vertex 43.693332436601644 42.329371405922686 -17.000000000000014
    vertex 44.00000000000003 39.99999999999999 -20.000000000000007
    vertex 44.00000000000003 39.99999999999999 -17.000000000000014
  endloop
endfacet
facet normal -0.9914448613738105 -0.13052619222005168 2.4064203870097985e-32
  outer loop
    vertex 44.00000000000003 39.99999999999999 -20.000000000000007
    vertex 43.693332436601644 42.329371405922686 -17.000000000000014
    vertex 43.693332436601644 42.329371405922686 -20.000000000000007
  endloop
endfacet
facet normal -0.9914448613738105 0.13052619222005168 4.287940296419362e-32
  outer loop
    vertex 44.00000000000003 39.99999999999999 -17.000000000000014
    vertex 43.693332436601644 37.67062859407731 -20.000000000000007
    vertex 43.693332436601644 37.67062859407731 -17.000000000000014
  endloop
endfacet
facet normal -0.9914448613738105 0.13052619222005168 4.287940296419362e-32
  outer loop
    vertex 43.693332436601644 37.67062859407731 -20.000000000000007
    vertex 44.00000000000003 39.99999999999999 -17.000000000000014
    vertex 44.00000000000003 39.99999999999999 -20.000000000000007
  endloop
endfacet
facet normal -0.9238795325112867 0.38268343236508984 5.877244160784328e-32
  outer loop
    vertex 43.693332436601644 37.67062859407731 -17.000000000000014
    vertex 42.79422863405998 35.49999999999999 -20.000000000000007
    vertex 42.79422863405998 35.49999999999999 -17.000000000000014
  endloop
endfacet
facet normal -0.9238795325112867 0.38268343236508984 5.877244160784328e-32
  outer loop
    vertex 42.79422863405998 35.49999999999999 -20.000000000000007
    vertex 43.693332436601644 37.67062859407731 -17.000000000000014
    vertex 43.693332436601644 37.67062859407731 -20.000000000000007
  endloop
endfacet
facet normal -0.7933533402912345 0.6087614290087215 7.06602354819705e-32
  outer loop
    vertex 42.79422863405998 35.49999999999999 -17.000000000000014
    vertex 41.36396103067895 33.63603896932107 -20.000000000000007
    vertex 41.36396103067895 33.63603896932107 -17.000000000000014
  endloop
endfacet
facet normal -0.7933533402912345 0.6087614290087215 7.06602354819705e-32
  outer loop
    vertex 41.36396103067895 33.63603896932107 -20.000000000000007
    vertex 42.79422863405998 35.49999999999999 -17.000000000000014
    vertex 42.79422863405998 35.49999999999999 -20.000000000000007
  endloop
endfacet
facet normal -0.6087614290087203 0.7933533402912354 7.773265107956164e-32
  outer loop
    vertex 39.50000000000002 32.205771365940045 -17.000000000000014
    vertex 41.36396103067895 33.63603896932107 -20.000000000000007
    vertex 39.50000000000002 32.205771365940045 -20.000000000000007
  endloop
endfacet
facet normal -0.6087614290087203 0.7933533402912354 7.773265107956164e-32
  outer loop
    vertex 41.36396103067895 33.63603896932107 -20.000000000000007
    vertex 39.50000000000002 32.205771365940045 -17.000000000000014
    vertex 41.36396103067895 33.63603896932107 -17.000000000000014
  endloop
endfacet
facet normal -0.3826834323650908 0.9238795325112865 7.950771496536037e-32
  outer loop
    vertex 37.329371405922714 31.30666756339838 -17.000000000000014
    vertex 39.50000000000002 32.205771365940045 -20.000000000000007
    vertex 37.329371405922714 31.30666756339838 -20.000000000000007
  endloop
endfacet
facet normal -0.3826834323650908 0.9238795325112865 7.950771496536037e-32
  outer loop
    vertex 39.50000000000002 32.205771365940045 -20.000000000000007
    vertex 37.329371405922714 31.30666756339838 -17.000000000000014
    vertex 39.50000000000002 32.205771365940045 -17.000000000000014
  endloop
endfacet
facet normal -0.13052619222005168 0.9914448613738105 7.586445946898123e-32
  outer loop
    vertex 35.00000000000003 30.999999999999993 -17.000000000000014
    vertex 37.329371405922714 31.30666756339838 -20.000000000000007
    vertex 35.00000000000003 30.999999999999993 -20.000000000000007
  endloop
endfacet
facet normal -0.13052619222005168 0.9914448613738105 7.586445946898123e-32
  outer loop
    vertex 37.329371405922714 31.30666756339838 -20.000000000000007
    vertex 35.00000000000003 30.999999999999993 -17.000000000000014
    vertex 37.329371405922714 31.30666756339838 -17.000000000000014
  endloop
endfacet
facet normal 0.6087614290087203 0.7933533402912354 3.662831200116678e-32
  outer loop
    vertex 28.636038969321095 33.63603896932107 -17.000000000000014
    vertex 30.50000000000002 32.205771365940045 -20.000000000000007
    vertex 28.636038969321095 33.63603896932107 -20.000000000000007
  endloop
endfacet
facet normal 0.6087614290087203 0.7933533402912354 3.662831200116678e-32
  outer loop
    vertex 30.50000000000002 32.205771365940045 -20.000000000000007
    vertex 28.636038969321095 33.63603896932107 -17.000000000000014
    vertex 30.50000000000002 32.205771365940045 -17.000000000000014
  endloop
endfacet
facet normal 0.7933533402912364 0.6087614290087192 1.7092017861137805e-32
  outer loop
    vertex 27.205771365940073 35.5 -20.000000000000007
    vertex 28.636038969321095 33.63603896932107 -17.000000000000014
    vertex 28.636038969321095 33.63603896932107 -20.000000000000007
  endloop
endfacet
facet normal 0.7933533402912364 0.6087614290087192 1.7092017861137805e-32
  outer loop
    vertex 28.636038969321095 33.63603896932107 -17.000000000000014
    vertex 27.205771365940073 35.5 -20.000000000000007
    vertex 27.205771365940073 35.5 -17.000000000000014
  endloop
endfacet
facet normal 0.0 0.0 1.0
  outer loop
    vertex 20.000000000000025 20.0 -17.000000000000014
    vertex 26.30666756339841 37.670628594077314 -17.000000000000014
    vertex 20.000000000000025 70.0 -17.000000000000014
  endloop
endfacet
facet normal 0.0 0.0 1.0
  outer loop
    vertex 26.30666756339841 37.670628594077314 -17.000000000000014
    vertex 20.000000000000025 20.0 -17.000000000000014
    vertex 27.205771365940073 35.5 -17.000000000000014
  endloop
endfacet
facet normal 0.0 0.0 1.0
  outer loop
    vertex 27.205771365940073 35.5 -17.000000000000014
    vertex 20.000000000000025 20.0 -17.000000000000014
    vertex 28.636038969321095 33.63603896932107 -17.000000000000014
  endloop
endfacet
facet normal 0.0 0.0 1.0
  outer loop
    vertex 28.636038969321095 33.63603896932107 -17.000000000000014
    vertex 20.000000000000025 20.0 -17.000000000000014
    vertex 30.50000000000002 32.205771365940045 -17.000000000000014
  endloop
endfacet
facet normal 0.0 0.0 1.0
  outer loop
    vertex 30.50000000000002 32.205771365940045 -17.000000000000014
    vertex 20.000000000000025 20.0 -17.000000000000014
    vertex 50.00000000000002 19.999999999999996 -17.000000000000014
  endloop
endfacet
facet normal 0.0 0.0 1.0
  outer loop
    vertex 20.000000000000025 70.0 -17.000000000000014
    vertex 26.30666756339841 37.670628594077314 -17.000000000000014
    vertex 26.000000000000025 39.99999999999999 -17.000000000000014
  endloop
endfacet
facet normal 0.0 0.0 1.0
  outer loop
    vertex 30.50000000000002 32.205771365940045 -17.000000000000014
    vertex 50.00000000000002 19.999999999999996 -17.000000000000014
    vertex 32.670628594077336 31.30666756339838 -17.000000000000014
  endloop
endfacet
facet normal 0.0 0.0 1.0
  outer loop
    vertex 32.670628594077336 31.30666756339838 -17.000000000000014
    vertex 50.00000000000002 19.999999999999996 -17.000000000000014
    vertex 35.00000000000003 30.999999999999993 -17.000000000000014
  endloop
endfacet
facet normal 0.0 0.0 1.0
  outer loop
    vertex 35.00000000000003 30.999999999999993 -17.000000000000014
    vertex 50.00000000000002 19.999999999999996 -17.000000000000014
    vertex 37.329371405922714 31.30666756339838 -17.000000000000014
  endloop
endfacet
facet normal 0.0 0.0 1.0
  outer loop
    vertex 37.329371405922714 31.30666756339838 -17.000000000000014
    vertex 50.00000000000002 19.999999999999996 -17.000000000000014
    vertex 39.50000000000002 32.205771365940045 -17.000000000000014
  endloop
endfacet
facet normal 0.0 0.0 1.0
  outer loop
    vertex 39.50000000000002 32.205771365940045 -17.000000000000014
    vertex 50.00000000000002 19.999999999999996 -17.000000000000014
    vertex 41.36396103067895 33.63603896932107 -17.000000000000014
  endloop
endfacet
facet normal 0.0 0.0 1.0
  outer loop
    vertex 41.36396103067895 33.63603896932107 -17.000000000000014
    vertex 50.00000000000002 19.999999999999996 -17.000000000000014
    vertex 42.79422863405998 35.49999999999999 -17.000000000000014
  endloop
endfacet
facet normal 0.0 0.0 1.0
  outer loop
    vertex 42.79422863405998 35.49999999999999 -17.000000000000014
    vertex 50.00000000000002 19.999999999999996 -17.000000000000014
    vertex 43.693332436601644 37.67062859407731 -17.000000000000014
  endloop
endfacet
facet normal 0.0 0.0 1.0
  outer loop
    vertex 43.693332436601644 37.67062859407731 -17.000000000000014
    vertex 50.00000000000002 19.999999999999996 -17.000000000000014
    vertex 44.00000000000003 39.99999999999999 -17.000000000000014
  endloop
endfacet
facet normal 0.0 0.0 1.0
  outer loop
    vertex 20.000000000000025 70.0 -17.000000000000014
    vertex 28.636038969321106 46.36396103067893 -17.000000000000014
    vertex 50.00000000000003 70.0 -17.000000000000014
  endloop
endfacet
facet normal 0.0 0.0 1.0
  outer loop
    vertex 28.636038969321106 46.36396103067893 -17.000000000000014
    vertex 20.000000000000025 70.0 -17.000000000000014
    vertex 27.20577136594008 44.5 -17.000000000000014
  endloop
endfacet
facet normal 0.0 0.0 1.0
  outer loop
    vertex 27.20577136594008 44.5 -17.000000000000014
    vertex 20.000000000000025 70.0 -17.000000000000014
    vertex 26.30666756339841 42.329371405922686 -17.000000000000014
  endloop
endfacet
facet normal 0.0 0.0 1.0
  outer loop
    vertex 26.30666756339841 42.329371405922686 -17.000000000000014
    vertex 20.000000000000025 70.0 -17.000000000000014
    vertex 26.000000000000025 39.99999999999999 -17.000000000000014
  endloop
endfacet
facet normal 0.0 0.0 1.0
  outer loop
    vertex 50.00000000000003 70.0 -17.000000000000014
    vertex 28.636038969321106 46.36396103067893 -17.000000000000014
    vertex 30.50000000000003 47.79422863405994 -17.000000000000014
  endloop
endfacet
facet normal 0.0 0.0 1.0
  outer loop
    vertex 50.00000000000003 70.0 -17.000000000000014
    vertex 30.50000000000003 47.79422863405994 -17.000000000000014
    vertex 32.67062859407734 48.69333243660161 -17.000000000000014
  endloop
endfacet
facet normal 0.0 0.0 1.0
  outer loop
    vertex 50.00000000000003 70.0 -17.000000000000014
    vertex 32.67062859407734 48.69333243660161 -17.000000000000014
    vertex 35.00000000000003 48.99999999999999 -17.000000000000014
  endloop
endfacet
facet normal 0.0 0.0 1.0
  outer loop
    vertex 50.00000000000003 70.0 -17.000000000000014
    vertex 35.00000000000003 48.99999999999999 -17.000000000000014
    vertex 37.329371405922714 48.69333243660161 -17.000000000000014
  endloop
endfacet
facet normal 0.0 0.0 1.0
  outer loop
    vertex 50.00000000000003 70.0 -17.000000000000014
    vertex 37.329371405922714 48.69333243660161 -17.000000000000014
    vertex 39.50000000000003 47.79422863405994 -17.000000000000014
  endloop
endfacet
facet normal 0.0 0.0 1.0
  outer loop
    vertex 50.00000000000003 70.0 -17.000000000000014
    vertex 39.50000000000003 47.79422863405994 -17.000000000000014
    vertex 41.36396103067895 46.36396103067892 -17.000000000000014
  endloop
endfacet
facet normal 0.0 0.0 1.0
  outer loop
    vertex 50.00000000000003 70.0 -17.000000000000014
    vertex 41.36396103067895 46.36396103067892 -17.000000000000014
    vertex 42.79422863405998 44.49999999999999 -17.000000000000014
  endloop
endfacet
facet normal 0.0 0.0 1.0
  outer loop
    vertex 50.00000000000003 70.0 -17.000000000000014
    vertex 42.79422863405998 44.49999999999999 -17.000000000000014
    vertex 43.693332436601644 42.329371405922686 -17.000000000000014
  endloop
endfacet
facet normal 0.0 0.0 1.0
  outer loop
    vertex 50.00000000000003 70.0 -17.000000000000014
    vertex 43.693332436601644 42.329371405922686 -17.000000000000014
    vertex 44.00000000000003 39.99999999999999 -17.000000000000014
  endloop
endfacet
facet normal 0.0 0.0 1.0
  outer loop
    vertex 50.00000000000003 70.0 -17.000000000000014
    vertex 44.00000000000003 39.99999999999999 -17.000000000000014
    vertex 50.00000000000002 19.999999999999996 -17.000000000000014
  endloop
endfacet
facet normal 1.0 -1.127986593019159e-16 -3.376063028937898e-32
  outer loop
    vertex 50.00000000000003 70.0 -20.000000000000007
    vertex 50.00000000000002 19.999999999999996 -17.000000000000014
    vertex 50.00000000000002 19.999999999999996 -20.000000000000007
  endloop
endfacet
facet normal 1.0 -1.127986593019159e-16 -3.376063028937898e-32
  outer loop
    vertex 50.00000000000002 19.999999999999996 -17.000000000000014
    vertex 50.00000000000003 70.0 -20.000000000000007
    vertex 50.00000000000003 70.0 -17.000000000000014
  endloop
endfacet
facet normal 0.9914448613738105 0.13052619222005202 -2.4064203870097963e-32
  outer loop
    vertex 26.000000000000025 39.99999999999999 -20.000000000000007
    vertex 26.30666756339841 37.670628594077314 -17.000000000000014
    vertex 26.30666756339841 37.670628594077314 -20.000000000000007
  endloop
endfacet
facet normal 0.9914448613738105 0.13052619222005202 -2.4064203870097963e-32
  outer loop
    vertex 26.30666756339841 37.670628594077314 -17.000000000000014
    vertex 26.000000000000025 39.99999999999999 -20.000000000000007
    vertex 26.000000000000025 39.99999999999999 -17.000000000000014
  endloop
endfacet
facet normal 0.0 1.0 7.207441960145222e-32
  outer loop
    vertex 20.000000000000025 70.0 -17.000000000000014
    vertex 50.00000000000003 70.0 -20.000000000000007
    vertex 20.000000000000025 70.0 -20.000000000000007
  endloop
endfacet
facet normal 0.0 1.0 7.207441960145222e-32
  outer loop
    vertex 50.00000000000003 70.0 -20.000000000000007
    vertex 20.000000000000025 70.0 -17.000000000000014
    vertex 50.00000000000003 70.0 -17.000000000000014
  endloop
endfacet
facet normal 0.9238795325112872 0.3826834323650886 -3.609069050232485e-33
  outer loop
    vertex 26.30666756339841 37.670628594077314 -20.000000000000007
    vertex 27.205771365940073 35.5 -17.000000000000014
    vertex 27.205771365940073 35.5 -20.000000000000007
  endloop
endfacet
facet normal 0.9238795325112872 0.3826834323650886 -3.609069050232485e-33
  outer loop
    vertex 27.205771365940073 35.5 -17.000000000000014
    vertex 26.30666756339841 37.670628594077314 -20.000000000000007
    vertex 26.30666756339841 37.670628594077314 -17.000000000000014
  endloop
endfacet
facet normal 0.0 0.0 -1.0
  outer loop
    vertex 20.000000000000032 70.0 -270.0
    vertex 26.30666756339841 42.329371405922686 -270.0
    vertex 20.000000000000032 20.0 -270.0
  endloop
endfacet
facet normal 0.0 0.0 -1.0
  outer loop
    vertex 26.30666756339841 42.329371405922686 -270.0
    vertex 20.000000000000032 70.0 -270.0
    vertex 27.20577136594008 44.5 -270.0
  endloop
endfacet
facet normal 0.0 0.0 -1.0
  outer loop
    vertex 27.20577136594008 44.5 -270.0
    vertex 20.000000000000032 70.0 -270.0
    vertex 28.6360389693211 46.36396103067893 -270.0
  endloop
endfacet
facet normal 0.0 0.0 -1.0
  outer loop
    vertex 28.6360389693211 46.36396103067893 -270.0
    vertex 20.000000000000032 70.0 -270.0
    vertex 50.00000000000003 70.0 -270.0
  endloop
endfacet
facet normal 0.0 0.0 -1.0
  outer loop
    vertex 20.000000000000032 20.0 -270.0
    vertex 26.30666756339841 42.329371405922686 -270.0
    vertex 26.000000000000025 39.99999999999999 -270.0
  endloop
endfacet
facet normal 0.0 0.0 -1.0
  outer loop
    vertex 28.6360389693211 46.36396103067893 -270.0
    vertex 50.00000000000003 70.0 -270.0
    vertex 30.500000000000036 47.79422863405995 -270.0
  endloop
endfacet
facet normal 0.0 0.0 -1.0
  outer loop
    vertex 30.500000000000036 47.79422863405995 -270.0
    vertex 50.00000000000003 70.0 -270.0
    vertex 32.67062859407734 48.69333243660161 -270.0
  endloop
endfacet
facet normal 0.0 0.0 -1.0
  outer loop
    vertex 32.67062859407734 48.69333243660161 -270.0
    vertex 50.00000000000003 70.0 -270.0
    vertex 35.00000000000003 48.99999999999999 -270.0
  endloop
endfacet
facet normal 0.0 0.0 -1.0
  outer loop
    vertex 35.00000000000003 48.99999999999999 -270.0
    vertex 50.00000000000003 70.0 -270.0
    vertex 37.32937140592272 48.69333243660161 -270.0
  endloop
endfacet
facet normal 0.0 0.0 -1.0
  outer loop
    vertex 37.32937140592272 48.69333243660161 -270.0
    vertex 50.00000000000003 70.0 -270.0
    vertex 39.50000000000003 47.79422863405994 -270.0
  endloop
endfacet
facet normal 0.0 0.0 -1.0
  outer loop
    vertex 39.50000000000003 47.79422863405994 -270.0
    vertex 50.00000000000003 70.0 -270.0
    vertex 41.36396103067896 46.363961030678915 -270.0
  endloop
endfacet
facet normal 0.0 0.0 -1.0
  outer loop
    vertex 41.36396103067896 46.363961030678915 -270.0
    vertex 50.00000000000003 70.0 -270.0
    vertex 42.79422863405998 44.49999999999999 -270.0
  endloop
endfacet
facet normal 0.0 0.0 -1.0
  outer loop
    vertex 42.79422863405998 44.49999999999999 -270.0
    vertex 50.00000000000003 70.0 -270.0
    vertex 43.693332436601644 42.32937140592268 -270.0
  endloop
endfacet
facet normal 0.0 0.0 -1.0
  outer loop
    vertex 43.693332436601644 42.32937140592268 -270.0
    vertex 50.00000000000003 70.0 -270.0
    vertex 44.00000000000003 39.99999999999999 -270.0
  endloop
endfacet
facet normal 0.0 0.0 -1.0
  outer loop
    vertex 20.000000000000032 20.0 -270.0
    vertex 30.50000000000002 32.205771365940045 -270.0
    vertex 50.00000000000003 19.999999999999996 -270.0
  endloop
endfacet
facet normal 0.0 0.0 -1.0
  outer loop
    vertex 30.50000000000002 32.205771365940045 -270.0
    vertex 20.000000000000032 20.0 -270.0
    vertex 28.6360389693211 33.63603896932107 -270.0
  endloop
endfacet
facet normal 0.0 0.0 -1.0
  outer loop
    vertex 28.6360389693211 33.63603896932107 -270.0
    vertex 20.000000000000032 20.0 -270.0
    vertex 27.20577136594008 35.5 -270.0
  endloop
endfacet
facet normal 0.0 0.0 -1.0
  outer loop
    vertex 27.20577136594008 35.5 -270.0
    vertex 20.000000000000032 20.0 -270.0
    vertex 26.30666756339841 37.67062859407731 -270.0
  endloop
endfacet
facet normal 0.0 0.0 -1.0
  outer loop
    vertex 26.30666756339841 37.67062859407731 -270.0
    vertex 20.000000000000032 20.0 -270.0
    vertex 26.000000000000025 39.99999999999999 -270.0
  endloop
endfacet
facet normal 0.0 0.0 -1.0
  outer loop
    vertex 50.00000000000003 19.999999999999996 -270.0
    vertex 30.50000000000002 32.205771365940045 -270.0
    vertex 32.670628594077336 31.30666756339838 -270.0
  endloop
endfacet
facet normal 0.0 0.0 -1.0
  outer loop
    vertex 50.00000000000003 19.999999999999996 -270.0
    vertex 32.670628594077336 31.30666756339838 -270.0
    vertex 35.00000000000003 30.999999999999993 -270.0
  endloop
endfacet
facet normal 0.0 0.0 -1.0
  outer loop
    vertex 50.00000000000003 19.999999999999996 -270.0
    vertex 35.00000000000003 30.999999999999993 -270.0
    vertex 37.329371405922714 31.30666756339838 -270.0
  endloop
endfacet
facet normal 0.0 0.0 -1.0
  outer loop
    vertex 50.00000000000003 19.999999999999996 -270.0
    vertex 37.329371405922714 31.30666756339838 -270.0
    vertex 39.50000000000002 32.205771365940045 -270.0
  endloop
endfacet
facet normal 0.0 0.0 -1.0
  outer loop
    vertex 50.00000000000003 19.999999999999996 -270.0
    vertex 39.50000000000002 32.205771365940045 -270.0
    vertex 41.36396103067895 33.63603896932107 -270.0
  endloop
endfacet
facet normal 0.0 0.0 -1.0
  outer loop
    vertex 50.00000000000003 19.999999999999996 -270.0
    vertex 41.36396103067895 33.63603896932107 -270.0
    vertex 42.79422863405998 35.49999999999999 -270.0
  endloop
endfacet
facet normal 0.0 0.0 -1.0
  outer loop
    vertex 50.00000000000003 19.999999999999996 -270.0
    vertex 42.79422863405998 35.49999999999999 -270.0
    vertex 43.693332436601644 37.67062859407731 -270.0
  endloop
endfacet
facet normal 0.0 0.0 -1.0
  outer loop
    vertex 50.00000000000003 19.999999999999996 -270.0
    vertex 43.693332436601644 37.67062859407731 -270.0
    vertex 44.00000000000003 39.99999999999999 -270.0
  endloop
endfacet
facet normal 0.0 0.0 -1.0
  outer loop
    vertex 50.00000000000003 19.999999999999996 -270.0
    vertex 44.00000000000003 39.99999999999999 -270.0
    vertex 50.00000000000003 70.0 -270.0
  endloop
endfacet
facet normal 0.38268343236508984 0.9238795325112867 -1.082019337278179e-29
  outer loop
    vertex 30.50000000000002 32.205771365940045 -267.0
    vertex 32.670628594077336 31.30666756339838 -270.0
    vertex 30.50000000000002 32.205771365940045 -270.0
  endloop
endfacet
facet normal 0.38268343236508984 0.9238795325112867 -1.082019337278179e-29
  outer loop
    vertex 32.670628594077336 31.30666756339838 -270.0
    vertex 30.50000000000002 32.205771365940045 -267.0
    vertex 32.670628594077336 31.30666756339838 -267.0
  endloop
endfacet
facet normal 0.1305261922200517 0.9914448613738105 3.172320182120529e-29
  outer loop
    vertex 32.670628594077336 31.30666756339838 -267.0
    vertex 35.00000000000003 30.999999999999993 -270.0
    vertex 32.670628594077336 31.30666756339838 -270.0
  endloop
endfacet
facet normal 0.1305261922200517 0.9914448613738105 3.172320182120529e-29
  outer loop
    vertex 35.00000000000003 30.999999999999993 -270.0
    vertex 32.670628594077336 31.30666756339838 -267.0
    vertex 35.00000000000003 30.999999999999993 -267.0
  endloop
endfacet
facet normal 0.9238795325112865 0.3826834323650908 0.0
  outer loop
    vertex 26.30666756339841 37.67062859407731 -270.0
    vertex 27.20577136594008 35.5 -267.0
    vertex 27.20577136594008 35.5 -270.0
  endloop
endfacet
facet normal 0.9238795325112865 0.3826834323650908 0.0
  outer loop
    vertex 27.20577136594008 35.5 -267.0
    vertex 26.30666756339841 37.67062859407731 -270.0
    vertex 26.30666756339841 37.67062859407731 -267.0
  endloop
endfacet
facet normal 0.9914448613738105 -0.13052619222005138 2.803263536185971e-29
  outer loop
    vertex 26.30666756339841 42.329371405922686 -270.0
    vertex 26.000000000000025 39.99999999999999 -267.0
    vertex 26.000000000000025 39.99999999999999 -270.0
  endloop
endfacet
facet normal 0.9914448613738105 -0.13052619222005138 2.803263536185971e-29
  outer loop
    vertex 26.000000000000025 39.99999999999999 -267.0
    vertex 26.30666756339841 42.329371405922686 -270.0
    vertex 26.30666756339841 42.329371405922686 -267.0
  endloop
endfacet
facet normal 0.9238795325112865 -0.3826834323650908 0.0
  outer loop
    vertex 27.20577136594008 44.5 -270.0
    vertex 26.30666756339841 42.329371405922686 -267.0
    vertex 26.30666756339841 42.329371405922686 -270.0
  endloop
endfacet
facet normal 0.9238795325112865 -0.3826834323650908 0.0
  outer loop
    vertex 26.30666756339841 42.329371405922686 -267.0
    vertex 27.20577136594008 44.5 -270.0
    vertex 27.20577136594008 44.5 -267.0
  endloop
endfacet
facet normal -0.3826834323650908 -0.9238795325112865 0.0
  outer loop
    vertex 39.50000000000003 47.79422863405994 -267.0
    vertex 37.32937140592272 48.69333243660161 -270.0
    vertex 39.50000000000003 47.79422863405994 -270.0
  endloop
endfacet
facet normal -0.3826834323650908 -0.9238795325112865 0.0
  outer loop
    vertex 37.32937140592272 48.69333243660161 -270.0
    vertex 39.50000000000003 47.79422863405994 -267.0
    vertex 37.32937140592272 48.69333243660161 -267.0
  endloop
endfacet
facet normal -0.7933533402912357 -0.6087614290087201 1.8925280109438667e-17
  outer loop
    vertex 41.36396103067896 46.363961030678915 -267.0
    vertex 42.79422863405998 44.49999999999999 -270.0
    vertex 42.79422863405998 44.49999999999999 -267.0
  endloop
endfacet
facet normal -0.7933533402912357 -0.6087614290087201 1.8925280109438667e-17
  outer loop
    vertex 42.79422863405998 44.49999999999999 -270.0
    vertex 41.36396103067896 46.363961030678915 -267.0
    vertex 41.36396103067896 46.363961030678915 -270.0
  endloop
endfacet
facet normal 1.0 0.0 0.0
  outer loop
    vertex 50.00000000000003 70.0 -270.0
    vertex 50.00000000000003 19.999999999999996 -267.0
    vertex 50.00000000000003 19.999999999999996 -270.0
  endloop
endfacet
facet normal 1.0 0.0 0.0
  outer loop
    vertex 50.00000000000003 19.999999999999996 -267.0
    vertex 50.00000000000003 70.0 -270.0
    vertex 50.00000000000003 70.0 -267.0
  endloop
endfacet
facet normal 1.0 0.0 0.0
  outer loop
    vertex 202.0 20.0 -270.0
    vertex 202.0 0.0 -270.0
    vertex 202.0 0.0 -290.0
  endloop
endfacet
facet normal 1.0 0.0 0.0
  outer loop
    vertex 202.0 0.0 -270.0
    vertex 202.0 20.0 -270.0
    vertex 202.0 0.0 0.0
  endloop
endfacet
facet normal 1.0 0.0 0.0
  outer loop
    vertex 202.0 0.0 0.0
    vertex 202.0 20.0 -270.0
    vertex 202.0 0.0 20.000000000000007
  endloop
endfacet
facet normal 1.0 0.0 0.0
  outer loop
    vertex 202.0 0.0 20.000000000000007
    vertex 202.0 20.0 -270.0
    vertex 202.0 20.0 0.0
  endloop
endfacet
facet normal -0.6087614290087215 -0.7933533402912345 -3.662831200116668e-32
  outer loop
    vertex 41.36396103067895 46.36396103067892 -17.000000000000014
    vertex 39.50000000000003 47.79422863405994 -20.000000000000007
    vertex 41.36396103067895 46.36396103067892 -20.000000000000007
  endloop
endfacet
facet normal -0.6087614290087215 -0.7933533402912345 -3.662831200116668e-32
  outer loop
    vertex 39.50000000000003 47.79422863405994 -20.000000000000007
    vertex 41.36396103067895 46.36396103067892 -17.000000000000014
    vertex 39.50000000000003 47.79422863405994 -17.000000000000014
  endloop
endfacet
facet normal 0.13052619222005135 0.9914448613738104 6.705116643173807e-32
  outer loop
    vertex 32.670628594077336 31.30666756339838 -17.000000000000014
    vertex 35.00000000000003 30.999999999999993 -20.000000000000007
    vertex 32.670628594077336 31.30666756339838 -20.000000000000007
  endloop
endfacet
facet normal 0.13052619222005135 0.9914448613738104 6.705116643173807e-32
  outer loop
    vertex 35.00000000000003 30.999999999999993 -20.000000000000007
    vertex 32.670628594077336 31.30666756339838 -17.000000000000014
    vertex 35.00000000000003 30.999999999999993 -17.000000000000014
  endloop
endfacet
facet normal 0.3826834323650908 0.9238795325112865 5.366844720946359e-32
  outer loop
    vertex 30.50000000000002 32.205771365940045 -17.000000000000014
    vertex 32.670628594077336 31.30666756339838 -20.000000000000007
    vertex 30.50000000000002 32.205771365940045 -20.000000000000007
  endloop
endfacet
facet normal 0.3826834323650908 0.9238795325112865 5.366844720946359e-32
  outer loop
    vertex 32.670628594077336 31.30666756339838 -20.000000000000007
    vertex 30.50000000000002 32.205771365940045 -17.000000000000014
    vertex 32.670628594077336 31.30666756339838 -17.000000000000014
  endloop
endfacet
facet normal 9.399888275159658e-17 1.0 0.0
  outer loop
    vertex 20.000000000000025 20.0 -17.000000000000014
    vertex 50.00000000000002 19.999999999999996 -20.000000000000007
    vertex 20.000000000000025 20.0 -20.000000000000007
  endloop
endfacet
facet normal 9.399888275159658e-17 1.0 0.0
  outer loop
    vertex 50.00000000000002 19.999999999999996 -20.000000000000007
    vertex 20.000000000000025 20.0 -17.000000000000014
    vertex 50.00000000000002 19.999999999999996 -17.000000000000014
  endloop
endfacet
facet normal 0.9914448613738104 -0.13052619222005135 -4.287940296419359e-32
  outer loop
    vertex 26.30666756339841 42.329371405922686 -20.000000000000007
    vertex 26.000000000000025 39.99999999999999 -17.000000000000014
    vertex 26.000000000000025 39.99999999999999 -20.000000000000007
  endloop
endfacet
facet normal 0.9914448613738104 -0.13052619222005135 -4.287940296419359e-32
  outer loop
    vertex 26.000000000000025 39.99999999999999 -17.000000000000014
    vertex 26.30666756339841 42.329371405922686 -20.000000000000007
    vertex 26.30666756339841 42.329371405922686 -17.000000000000014
  endloop
endfacet
facet normal -1.0 0.0 0.0
  outer loop
    vertex 20.000000000000025 70.0 -17.000000000000014
    vertex 20.000000000000025 20.0 -20.000000000000007
    vertex 20.000000000000025 20.0 -17.000000000000014
  endloop
endfacet
facet normal -1.0 0.0 0.0
  outer loop
    vertex 20.000000000000025 20.0 -20.000000000000007
    vertex 20.000000000000025 70.0 -17.000000000000014
    vertex 20.000000000000025 70.0 -20.000000000000007
  endloop
endfacet
facet normal 0.6087614290087217 0.7933533402912345 -1.8925280109416283e-17
  outer loop
    vertex 28.6360389693211 33.63603896932107 -267.0
    vertex 30.50000000000002 32.205771365940045 -270.0
    vertex 28.6360389693211 33.63603896932107 -270.0
  endloop
endfacet
facet normal 0.6087614290087217 0.7933533402912345 -1.8925280109416283e-17
  outer loop
    vertex 30.50000000000002 32.205771365940045 -270.0
    vertex 28.6360389693211 33.63603896932107 -267.0
    vertex 30.50000000000002 32.205771365940045 -267.0
  endloop
endfacet
facet normal 0.6087614290087193 -0.7933533402912363 -1.892528010940577e-17
  outer loop
    vertex 30.500000000000036 47.79422863405995 -267.0
    vertex 28.6360389693211 46.36396103067893 -270.0
    vertex 30.500000000000036 47.79422863405995 -270.0
  endloop
endfacet
facet normal 0.6087614290087193 -0.7933533402912363 -1.892528010940577e-17
  outer loop
    vertex 28.6360389693211 46.36396103067893 -270.0
    vertex 30.500000000000036 47.79422863405995 -267.0
    vertex 28.6360389693211 46.36396103067893 -267.0
  endloop
endfacet
facet normal 0.38268343236508867 -0.9238795325112873 -2.612225758806929e-29
  outer loop
    vertex 32.67062859407734 48.69333243660161 -267.0
    vertex 30.500000000000036 47.79422863405995 -270.0
    vertex 32.67062859407734 48.69333243660161 -270.0
  endloop
endfacet
facet normal 0.38268343236508867 -0.9238795325112873 -2.612225758806929e-29
  outer loop
    vertex 30.500000000000036 47.79422863405995 -270.0
    vertex 32.67062859407734 48.69333243660161 -267.0
    vertex 30.500000000000036 47.79422863405995 -267.0
  endloop
endfacet
facet normal 0.13052619222005202 -0.9914448613738105 4.057820735151235e-18
  outer loop
    vertex 35.00000000000003 48.99999999999999 -267.0
    vertex 32.67062859407734 48.69333243660161 -270.0
    vertex 35.00000000000003 48.99999999999999 -270.0
  endloop
endfacet
facet normal 0.13052619222005202 -0.9914448613738105 4.057820735151235e-18
  outer loop
    vertex 32.67062859407734 48.69333243660161 -270.0
    vertex 35.00000000000003 48.99999999999999 -267.0
    vertex 32.67062859407734 48.69333243660161 -267.0
  endloop
endfacet
facet normal -0.13052619222005138 -0.9914448613738105 2.803263536185971e-29
  outer loop
    vertex 37.32937140592272 48.69333243660161 -267.0
    vertex 35.00000000000003 48.99999999999999 -270.0
    vertex 37.32937140592272 48.69333243660161 -270.0
  endloop
endfacet
facet normal -0.13052619222005138 -0.9914448613738105 2.803263536185971e-29
  outer loop
    vertex 35.00000000000003 48.99999999999999 -270.0
    vertex 37.32937140592272 48.69333243660161 -267.0
    vertex 35.00000000000003 48.99999999999999 -267.0
  endloop
endfacet
facet normal -0.6087614290087219 -0.7933533402912344 0.0
  outer loop
    vertex 41.36396103067896 46.363961030678915 -267.0
    vertex 39.50000000000003 47.79422863405994 -270.0
    vertex 41.36396103067896 46.363961030678915 -270.0
  endloop
endfacet
facet normal -0.6087614290087219 -0.7933533402912344 0.0
  outer loop
    vertex 39.50000000000003 47.79422863405994 -270.0
    vertex 41.36396103067896 46.363961030678915 -267.0
    vertex 39.50000000000003 47.79422863405994 -267.0
  endloop
endfacet
facet normal -0.9238795325112867 -0.38268343236508984 1.082019337278179e-29
  outer loop
    vertex 42.79422863405998 44.49999999999999 -267.0
    vertex 43.693332436601644 42.32937140592268 -270.0
    vertex 43.693332436601644 42.32937140592268 -267.0
  endloop
endfacet
facet normal -0.9238795325112867 -0.38268343236508984 1.082019337278179e-29
  outer loop
    vertex 43.693332436601644 42.32937140592268 -270.0
    vertex 42.79422863405998 44.49999999999999 -267.0
    vertex 42.79422863405998 44.49999999999999 -270.0
  endloop
endfacet
facet normal -0.9914448613738105 0.1305261922200517 3.172320182120529e-29
  outer loop
    vertex 44.00000000000003 39.99999999999999 -267.0
    vertex 43.693332436601644 37.67062859407731 -270.0
    vertex 43.693332436601644 37.67062859407731 -267.0
  endloop
endfacet
facet normal -0.9914448613738105 0.1305261922200517 3.172320182120529e-29
  outer loop
    vertex 43.693332436601644 37.67062859407731 -270.0
    vertex 44.00000000000003 39.99999999999999 -267.0
    vertex 44.00000000000003 39.99999999999999 -270.0
  endloop
endfacet
facet normal -0.9914448613738105 -0.13052619222005202 -4.05782073509517e-18
  outer loop
    vertex 43.693332436601644 42.32937140592268 -267.0
    vertex 44.00000000000003 39.99999999999999 -270.0
    vertex 44.00000000000003 39.99999999999999 -267.0
  endloop
endfacet
facet normal -0.9914448613738105 -0.13052619222005202 -4.05782073509517e-18
  outer loop
    vertex 44.00000000000003 39.99999999999999 -270.0
    vertex 43.693332436601644 42.32937140592268 -267.0
    vertex 43.693332436601644 42.32937140592268 -270.0
  endloop
endfacet
facet normal -0.9238795325112867 0.38268343236508984 -1.082019337278179e-29
  outer loop
    vertex 43.693332436601644 37.67062859407731 -267.0
    vertex 42.79422863405998 35.49999999999999 -270.0
    vertex 42.79422863405998 35.49999999999999 -267.0
  endloop
endfacet
facet normal -0.9238795325112867 0.38268343236508984 -1.082019337278179e-29
  outer loop
    vertex 42.79422863405998 35.49999999999999 -270.0
    vertex 43.693332436601644 37.67062859407731 -267.0
    vertex 43.693332436601644 37.67062859407731 -270.0
  endloop
endfacet
facet normal -0.7933533402912345 0.6087614290087217 -1.8925280109416283e-17
  outer loop
    vertex 42.79422863405998 35.49999999999999 -267.0
    vertex 41.36396103067895 33.63603896932107 -270.0
    vertex 41.36396103067895 33.63603896932107 -267.0
  endloop
endfacet
facet normal -0.7933533402912345 0.6087614290087217 -1.8925280109416283e-17
  outer loop
    vertex 41.36396103067895 33.63603896932107 -270.0
    vertex 42.79422863405998 35.49999999999999 -267.0
    vertex 42.79422863405998 35.49999999999999 -270.0
  endloop
endfacet
facet normal -0.6087614290087204 0.7933533402912355 -2.2431691128723704e-29
  outer loop
    vertex 39.50000000000002 32.205771365940045 -267.0
    vertex 41.36396103067895 33.63603896932107 -270.0
    vertex 39.50000000000002 32.205771365940045 -270.0
  endloop
endfacet
facet normal -0.6087614290087204 0.7933533402912355 -2.2431691128723704e-29
  outer loop
    vertex 41.36396103067895 33.63603896932107 -270.0
    vertex 39.50000000000002 32.205771365940045 -267.0
    vertex 41.36396103067895 33.63603896932107 -267.0
  endloop
endfacet
facet normal -0.3826834323650908 0.9238795325112865 0.0
  outer loop
    vertex 37.329371405922714 31.30666756339838 -267.0
    vertex 39.50000000000002 32.205771365940045 -270.0
    vertex 37.329371405922714 31.30666756339838 -270.0
  endloop
endfacet
facet normal -0.3826834323650908 0.9238795325112865 0.0
  outer loop
    vertex 39.50000000000002 32.205771365940045 -270.0
    vertex 37.329371405922714 31.30666756339838 -267.0
    vertex 39.50000000000002 32.205771365940045 -267.0
  endloop
endfacet
facet normal -0.1305261922200517 0.9914448613738105 3.172320182120529e-29
  outer loop
    vertex 35.00000000000003 30.999999999999993 -267.0
    vertex 37.329371405922714 31.30666756339838 -270.0
    vertex 35.00000000000003 30.999999999999993 -270.0
  endloop
endfacet
facet normal -0.1305261922200517 0.9914448613738105 3.172320182120529e-29
  outer loop
    vertex 37.329371405922714 31.30666756339838 -270.0
    vertex 35.00000000000003 30.999999999999993 -267.0
    vertex 37.329371405922714 31.30666756339838 -267.0
  endloop
endfacet
facet normal -0.38268343236508984 -0.9238795325112867 -5.366844720946364e-32
  outer loop
    vertex 39.50000000000003 47.79422863405994 -17.000000000000014
    vertex 37.329371405922714 48.69333243660161 -20.000000000000007
    vertex 39.50000000000003 47.79422863405994 -20.000000000000007
  endloop
endfacet
facet normal -0.38268343236508984 -0.9238795325112867 -5.366844720946364e-32
  outer loop
    vertex 37.329371405922714 48.69333243660161 -20.000000000000007
    vertex 39.50000000000003 47.79422863405994 -17.000000000000014
    vertex 37.329371405922714 48.69333243660161 -17.000000000000014
  endloop
endfacet
facet normal 0.0 0.0 1.0
  outer loop
    vertex 170.0 0.0 0.0
    vertex 19.999999999999996 20.0 0.0
    vertex 0.0 0.0 0.0
  endloop
endfacet
facet normal 0.0 0.0 1.0
  outer loop
    vertex 19.999999999999996 20.0 0.0
    vertex 170.0 0.0 0.0
    vertex 170.0 20.0 0.0
  endloop
endfacet
facet normal 0.0 0.0 1.0
  outer loop
    vertex 20.000000000000032 20.0 -267.0
    vertex 26.30666756339841 37.67062859407731 -267.0
    vertex 20.000000000000032 70.0 -267.0
  endloop
endfacet
facet normal 0.0 0.0 1.0
  outer loop
    vertex 26.30666756339841 37.67062859407731 -267.0
    vertex 20.000000000000032 20.0 -267.0
    vertex 27.20577136594008 35.5 -267.0
  endloop
endfacet
facet normal 0.0 0.0 1.0
  outer loop
    vertex 27.20577136594008 35.5 -267.0
    vertex 20.000000000000032 20.0 -267.0
    vertex 28.6360389693211 33.63603896932107 -267.0
  endloop
endfacet
facet normal 0.0 0.0 1.0
  outer loop
    vertex 28.6360389693211 33.63603896932107 -267.0
    vertex 20.000000000000032 20.0 -267.0
    vertex 30.50000000000002 32.205771365940045 -267.0
  endloop
endfacet
facet normal 0.0 0.0 1.0
  outer loop
    vertex 30.50000000000002 32.205771365940045 -267.0
    vertex 20.000000000000032 20.0 -267.0
    vertex 50.00000000000003 19.999999999999996 -267.0
  endloop
endfacet
facet normal 0.0 0.0 1.0
  outer loop
    vertex 20.000000000000032 70.0 -267.0
    vertex 26.30666756339841 37.67062859407731 -267.0
    vertex 26.000000000000025 39.99999999999999 -267.0
  endloop
endfacet
facet normal 0.0 0.0 1.0
  outer loop
    vertex 30.50000000000002 32.205771365940045 -267.0
    vertex 50.00000000000003 19.999999999999996 -267.0
    vertex 32.670628594077336 31.30666756339838 -267.0
  endloop
endfacet
facet normal 0.0 0.0 1.0
  outer loop
    vertex 32.670628594077336 31.30666756339838 -267.0
    vertex 50.00000000000003 19.999999999999996 -267.0
    vertex 35.00000000000003 30.999999999999993 -267.0
  endloop
endfacet
facet normal 0.0 0.0 1.0
  outer loop
    vertex 35.00000000000003 30.999999999999993 -267.0
    vertex 50.00000000000003 19.999999999999996 -267.0
    vertex 37.329371405922714 31.30666756339838 -267.0
  endloop
endfacet
facet normal 0.0 0.0 1.0
  outer loop
    vertex 37.329371405922714 31.30666756339838 -267.0
    vertex 50.00000000000003 19.999999999999996 -267.0
    vertex 39.50000000000002 32.205771365940045 -267.0
  endloop
endfacet
facet normal 0.0 0.0 1.0
  outer loop
    vertex 39.50000000000002 32.205771365940045 -267.0
    vertex 50.00000000000003 19.999999999999996 -267.0
    vertex 41.36396103067895 33.63603896932107 -267.0
  endloop
endfacet
facet normal 0.0 0.0 1.0
  outer loop
    vertex 41.36396103067895 33.63603896932107 -267.0
    vertex 50.00000000000003 19.999999999999996 -267.0
    vertex 42.79422863405998 35.49999999999999 -267.0
  endloop
endfacet
facet normal 0.0 0.0 1.0
  outer loop
    vertex 42.79422863405998 35.49999999999999 -267.0
    vertex 50.00000000000003 19.999999999999996 -267.0
    vertex 43.693332436601644 37.67062859407731 -267.0
  endloop
endfacet
facet normal 0.0 0.0 1.0
  outer loop
    vertex 43.693332436601644 37.67062859407731 -267.0
    vertex 50.00000000000003 19.999999999999996 -267.0
    vertex 44.00000000000003 39.99999999999999 -267.0
  endloop
endfacet
facet normal 0.0 0.0 1.0
  outer loop
    vertex 20.000000000000032 70.0 -267.0
    vertex 28.6360389693211 46.36396103067893 -267.0
    vertex 50.00000000000003 70.0 -267.0
  endloop
endfacet
facet normal 0.0 0.0 1.0
  outer loop
    vertex 28.6360389693211 46.36396103067893 -267.0
    vertex 20.000000000000032 70.0 -267.0
    vertex 27.20577136594008 44.5 -267.0
  endloop
endfacet
facet normal 0.0 0.0 1.0
  outer loop
    vertex 27.20577136594008 44.5 -267.0
    vertex 20.000000000000032 70.0 -267.0
    vertex 26.30666756339841 42.329371405922686 -267.0
  endloop
endfacet
facet normal 0.0 0.0 1.0
  outer loop
    vertex 26.30666756339841 42.329371405922686 -267.0
    vertex 20.000000000000032 70.0 -267.0
    vertex 26.000000000000025 39.99999999999999 -267.0
  endloop
endfacet
facet normal 0.0 0.0 1.0
  outer loop
    vertex 50.00000000000003 70.0 -267.0
    vertex 28.6360389693211 46.36396103067893 -267.0
    vertex 30.500000000000036 47.79422863405995 -267.0
  endloop
endfacet
facet normal 0.0 0.0 1.0
  outer loop
    vertex 50.00000000000003 70.0 -267.0
    vertex 30.500000000000036 47.79422863405995 -267.0
    vertex 32.67062859407734 48.69333243660161 -267.0
  endloop
endfacet
facet normal 0.0 0.0 1.0
  outer loop
    vertex 50.00000000000003 70.0 -267.0
    vertex 32.67062859407734 48.69333243660161 -267.0
    vertex 35.00000000000003 48.99999999999999 -267.0
  endloop
endfacet
facet normal 0.0 0.0 1.0
  outer loop
    vertex 50.00000000000003 70.0 -267.0
    vertex 35.00000000000003 48.99999999999999 -267.0
    vertex 37.32937140592272 48.69333243660161 -267.0
  endloop
endfacet
facet normal 0.0 0.0 1.0
  outer loop
    vertex 50.00000000000003 70.0 -267.0
    vertex 37.32937140592272 48.69333243660161 -267.0
    vertex 39.50000000000003 47.79422863405994 -267.0
  endloop
endfacet
facet normal 0.0 0.0 1.0
  outer loop
    vertex 50.00000000000003 70.0 -267.0
    vertex 39.50000000000003 47.79422863405994 -267.0
    vertex 41.36396103067896 46.363961030678915 -267.0
  endloop
endfacet
facet normal 0.0 0.0 1.0
  outer loop
    vertex 50.00000000000003 70.0 -267.0
    vertex 41.36396103067896 46.363961030678915 -267.0
    vertex 42.79422863405998 44.49999999999999 -267.0
  endloop
endfacet
facet normal 0.0 0.0 1.0
  outer loop
    vertex 50.00000000000003 70.0 -267.0
    vertex 42.79422863405998 44.49999999999999 -267.0
    vertex 43.693332436601644 42.32937140592268 -267.0
  endloop
endfacet
facet normal 0.0 0.0 1.0
  outer loop
    vertex 50.00000000000003 70.0 -267.0
    vertex 43.693332436601644 42.32937140592268 -267.0
    vertex 44.00000000000003 39.99999999999999 -267.0
  endloop
endfacet
facet normal 0.0 0.0 1.0
  outer loop
    vertex 50.00000000000003 70.0 -267.0
    vertex 44.00000000000003 39.99999999999999 -267.0
    vertex 50.00000000000003 19.999999999999996 -267.0
  endloop
endfacet
facet normal 0.9238795325112865 -0.3826834323650908 -5.877244160784334e-32
  outer loop
    vertex 27.20577136594008 44.5 -20.000000000000007
    vertex 26.30666756339841 42.329371405922686 -17.000000000000014
    vertex 26.30666756339841 42.329371405922686 -20.000000000000007
  endloop
endfacet
facet normal 0.9238795325112865 -0.3826834323650908 -5.877244160784334e-32
  outer loop
    vertex 26.30666756339841 42.329371405922686 -17.000000000000014
    vertex 27.20577136594008 44.5 -20.000000000000007
    vertex 27.20577136594008 44.5 -17.000000000000014
  endloop
endfacet
facet normal 0.38268343236508984 -0.9238795325112867 -7.950771496536036e-32
  outer loop
    vertex 32.67062859407734 48.69333243660161 -17.000000000000014
    vertex 30.50000000000003 47.79422863405994 -20.000000000000007
    vertex 32.67062859407734 48.69333243660161 -20.000000000000007
  endloop
endfacet
facet normal 0.38268343236508984 -0.9238795325112867 -7.950771496536036e-32
  outer loop
    vertex 30.50000000000003 47.79422863405994 -20.000000000000007
    vertex 32.67062859407734 48.69333243660161 -17.000000000000014
    vertex 30.50000000000003 47.79422863405994 -17.000000000000014
  endloop
endfacet
facet normal 0.0 0.0 -1.0
  outer loop
    vertex 20.000000000000025 20.0 -20.000000000000007
    vertex 170.0 0.0 -20.000000000000007
    vertex 0.0 0.0 -20.000000000000007
  endloop
endfacet
facet normal 0.0 0.0 -1.0
  outer loop
    vertex 170.0 0.0 -20.000000000000007
    vertex 20.000000000000025 20.0 -20.000000000000007
    vertex 50.00000000000002 19.999999999999996 -20.000000000000007
  endloop
endfacet
facet normal 0.0 0.0 -1.0
  outer loop
    vertex 170.0 0.0 -20.000000000000007
    vertex 50.00000000000002 19.999999999999996 -20.000000000000007
    vertex 170.0 20.0 -20.000000000000007
  endloop
endfacet
facet normal -3.376063028937897e-32 7.207441960145222e-32 -1.0
  outer loop
    vertex 20.000000000000025 70.0 -20.000000000000007
    vertex 26.30666756339841 42.329371405922686 -20.000000000000007
    vertex 20.000000000000025 20.0 -20.000000000000007
  endloop
endfacet
facet normal -3.376063028937897e-32 7.207441960145222e-32 -1.0
  outer loop
    vertex 26.30666756339841 42.329371405922686 -20.000000000000007
    vertex 20.000000000000025 70.0 -20.000000000000007
    vertex 27.20577136594008 44.5 -20.000000000000007
  endloop
endfacet
facet normal -3.376063028937897e-32 7.207441960145222e-32 -1.0
  outer loop
    vertex 27.20577136594008 44.5 -20.000000000000007
    vertex 20.000000000000025 70.0 -20.000000000000007
    vertex 28.636038969321106 46.36396103067893 -20.000000000000007
  endloop
endfacet
facet normal -3.376063028937897e-32 7.207441960145222e-32 -1.0
  outer loop
    vertex 28.636038969321106 46.36396103067893 -20.000000000000007
    vertex 20.000000000000025 70.0 -20.000000000000007
    vertex 50.00000000000003 70.0 -20.000000000000007
  endloop
endfacet
facet normal -3.376063028937897e-32 7.207441960145222e-32 -1.0
  outer loop
    vertex 20.000000000000025 20.0 -20.000000000000007
    vertex 26.30666756339841 42.329371405922686 -20.000000000000007
    vertex 26.000000000000025 39.99999999999999 -20.000000000000007
  endloop
endfacet
facet normal -3.376063028937897e-32 7.207441960145222e-32 -1.0
  outer loop
    vertex 28.636038969321106 46.36396103067893 -20.000000000000007
    vertex 50.00000000000003 70.0 -20.000000000000007
    vertex 30.50000000000003 47.79422863405994 -20.000000000000007
  endloop
endfacet
facet normal -3.376063028937897e-32 7.207441960145222e-32 -1.0
  outer loop
    vertex 30.50000000000003 47.79422863405994 -20.000000000000007
    vertex 50.00000000000003 70.0 -20.000000000000007
    vertex 32.67062859407734 48.69333243660161 -20.000000000000007
  endloop
endfacet
facet normal -3.376063028937897e-32 7.207441960145222e-32 -1.0
  outer loop
    vertex 32.67062859407734 48.69333243660161 -20.000000000000007
    vertex 50.00000000000003 70.0 -20.000000000000007
    vertex 35.00000000000003 48.99999999999999 -20.000000000000007
  endloop
endfacet
facet normal -3.376063028937897e-32 7.207441960145222e-32 -1.0
  outer loop
    vertex 35.00000000000003 48.99999999999999 -20.000000000000007
    vertex 50.00000000000003 70.0 -20.000000000000007
    vertex 37.329371405922714 48.69333243660161 -20.000000000000007
  endloop
endfacet
facet normal -3.376063028937897e-32 7.207441960145222e-32 -1.0
  outer loop
    vertex 37.329371405922714 48.69333243660161 -20.000000000000007
    vertex 50.00000000000003 70.0 -20.000000000000007
    vertex 39.50000000000003 47.79422863405994 -20.000000000000007
  endloop
endfacet
facet normal -3.376063028937897e-32 7.207441960145222e-32 -1.0
  outer loop
    vertex 39.50000000000003 47.79422863405994 -20.000000000000007
    vertex 50.00000000000003 70.0 -20.000000000000007
    vertex 41.36396103067895 46.36396103067892 -20.000000000000007
  endloop
endfacet
facet normal -3.376063028937897e-32 7.207441960145222e-32 -1.0
  outer loop
    vertex 41.36396103067895 46.36396103067892 -20.000000000000007
    vertex 50.00000000000003 70.0 -20.000000000000007
    vertex 42.79422863405998 44.49999999999999 -20.000000000000007
  endloop
endfacet
facet normal -3.376063028937897e-32 7.207441960145222e-32 -1.0
  outer loop
    vertex 42.79422863405998 44.49999999999999 -20.000000000000007
    vertex 50.00000000000003 70.0 -20.000000000000007
    vertex 43.693332436601644 42.329371405922686 -20.000000000000007
  endloop
endfacet
facet normal -3.376063028937897e-32 7.207441960145222e-32 -1.0
  outer loop
    vertex 43.693332436601644 42.329371405922686 -20.000000000000007
    vertex 50.00000000000003 70.0 -20.000000000000007
    vertex 44.00000000000003 39.99999999999999 -20.000000000000007
  endloop
endfacet
facet normal -3.376063028937897e-32 7.207441960145222e-32 -1.0
  outer loop
    vertex 44.00000000000003 39.99999999999999 -20.000000000000007
    vertex 50.00000000000003 70.0 -20.000000000000007
    vertex 50.00000000000002 19.999999999999996 -20.000000000000007
  endloop
endfacet
facet normal -3.376063028937897e-32 7.207441960145222e-32 -1.0
  outer loop
    vertex 20.000000000000025 20.0 -20.000000000000007
    vertex 30.50000000000002 32.205771365940045 -20.000000000000007
    vertex 50.00000000000002 19.999999999999996 -20.000000000000007
  endloop
endfacet
facet normal -3.376063028937897e-32 7.207441960145222e-32 -1.0
  outer loop
    vertex 30.50000000000002 32.205771365940045 -20.000000000000007
    vertex 20.000000000000025 20.0 -20.000000000000007
    vertex 28.636038969321095 33.63603896932107 -20.000000000000007
  endloop
endfacet
facet normal -3.376063028937897e-32 7.207441960145222e-32 -1.0
  outer loop
    vertex 28.636038969321095 33.63603896932107 -20.000000000000007
    vertex 20.000000000000025 20.0 -20.000000000000007
    vertex 27.205771365940073 35.5 -20.000000000000007
  endloop
endfacet
facet normal -3.376063028937897e-32 7.207441960145222e-32 -1.0
  outer loop
    vertex 27.205771365940073 35.5 -20.000000000000007
    vertex 20.000000000000025 20.0 -20.000000000000007
    vertex 26.30666756339841 37.670628594077314 -20.000000000000007
  endloop
endfacet
facet normal -3.376063028937897e-32 7.207441960145222e-32 -1.0
  outer loop
    vertex 26.30666756339841 37.670628594077314 -20.000000000000007
    vertex 20.000000000000025 20.0 -20.000000000000007
    vertex 26.000000000000025 39.99999999999999 -20.000000000000007
  endloop
endfacet
facet normal -3.376063028937897e-32 7.207441960145222e-32 -1.0
  outer loop
    vertex 50.00000000000002 19.999999999999996 -20.000000000000007
    vertex 30.50000000000002 32.205771365940045 -20.000000000000007
    vertex 32.670628594077336 31.30666756339838 -20.000000000000007
  endloop
endfacet
facet normal -3.376063028937897e-32 7.207441960145222e-32 -1.0
  outer loop
    vertex 50.00000000000002 19.999999999999996 -20.000000000000007
    vertex 32.670628594077336 31.30666756339838 -20.000000000000007
    vertex 35.00000000000003 30.999999999999993 -20.000000000000007
  endloop
endfacet
facet normal -3.376063028937897e-32 7.207441960145222e-32 -1.0
  outer loop
    vertex 50.00000000000002 19.999999999999996 -20.000000000000007
    vertex 35.00000000000003 30.999999999999993 -20.000000000000007
    vertex 37.329371405922714 31.30666756339838 -20.000000000000007
  endloop
endfacet
facet normal -3.376063028937897e-32 7.207441960145222e-32 -1.0
  outer loop
    vertex 50.00000000000002 19.999999999999996 -20.000000000000007
    vertex 37.329371405922714 31.30666756339838 -20.000000000000007
    vertex 39.50000000000002 32.205771365940045 -20.000000000000007
  endloop
endfacet
facet normal -3.376063028937897e-32 7.207441960145222e-32 -1.0
  outer loop
    vertex 50.00000000000002 19.999999999999996 -20.000000000000007
    vertex 39.50000000000002 32.205771365940045 -20.000000000000007
    vertex 41.36396103067895 33.63603896932107 -20.000000000000007
  endloop
endfacet
facet normal -3.376063028937897e-32 7.207441960145222e-32 -1.0
  outer loop
    vertex 50.00000000000002 19.999999999999996 -20.000000000000007
    vertex 41.36396103067895 33.63603896932107 -20.000000000000007
    vertex 42.79422863405998 35.49999999999999 -20.000000000000007
  endloop
endfacet
facet normal -3.376063028937897e-32 7.207441960145222e-32 -1.0
  outer loop
    vertex 50.00000000000002 19.999999999999996 -20.000000000000007
    vertex 42.79422863405998 35.49999999999999 -20.000000000000007
    vertex 43.693332436601644 37.67062859407731 -20.000000000000007
  endloop
endfacet
facet normal -3.376063028937897e-32 7.207441960145222e-32 -1.0
  outer loop
    vertex 50.00000000000002 19.999999999999996 -20.000000000000007
    vertex 43.693332436601644 37.67062859407731 -20.000000000000007
    vertex 44.00000000000003 39.99999999999999 -20.000000000000007
  endloop
endfacet
facet normal 0.13052619222005202 -0.9914448613738105 -7.586445946898124e-32
  outer loop
    vertex 35.00000000000003 48.99999999999999 -17.000000000000014
    vertex 32.67062859407734 48.69333243660161 -20.000000000000007
    vertex 35.00000000000003 48.99999999999999 -20.000000000000007
  endloop
endfacet
facet normal 0.13052619222005202 -0.9914448613738105 -7.586445946898124e-32
  outer loop
    vertex 32.67062859407734 48.69333243660161 -20.000000000000007
    vertex 35.00000000000003 48.99999999999999 -17.000000000000014
    vertex 32.67062859407734 48.69333243660161 -17.000000000000014
  endloop
endfacet
facet normal -1.0 0.0 0.0
  outer loop
    vertex 170.0 20.0 -270.0
    vertex 170.0 0.0 -290.0
    vertex 170.0 0.0 -270.0
  endloop
endfacet
facet normal 0.0 0.7071067811865477 -0.7071067811865474
  outer loop
    vertex 170.0 20.0 -270.0
    vertex 202.0 0.0 -290.0
    vertex 170.0 0.0 -290.0
  endloop
endfacet
facet normal 0.0 0.7071067811865477 -0.7071067811865474
  outer loop
    vertex 202.0 0.0 -290.0
    vertex 170.0 20.0 -270.0
    vertex 202.0 20.0 -270.0
  endloop
endfacet
facet normal 0.0 -1.0 0.0
  outer loop
    vertex 202.0 0.0 0.0
    vertex 170.0 0.0 -270.0
    vertex 202.0 0.0 -270.0
  endloop
endfacet
facet normal 0.0 -1.0 0.0
  outer loop
    vertex 170.0 0.0 -270.0
    vertex 202.0 0.0 0.0
    vertex 170.0 0.0 -250.0
  endloop
endfacet
facet normal 0.0 -1.0 0.0
  outer loop
    vertex 170.0 0.0 -270.0
    vertex 170.0 0.0 -250.0
    vertex 0.0 0.0 -270.0
  endloop
endfacet
facet normal 0.0 -1.0 0.0
  outer loop
    vertex 170.0 0.0 -250.0
    vertex 202.0 0.0 0.0
    vertex 170.0 0.0 -20.000000000000007
  endloop
endfacet
facet normal 0.0 -1.0 0.0
  outer loop
    vertex 170.0 0.0 -20.000000000000007
    vertex 202.0 0.0 0.0
    vertex 170.0 0.0 0.0
  endloop
endfacet
facet normal 0.0 -1.0 0.0
  outer loop
    vertex 0.0 0.0 -250.0
    vertex 0.0 0.0 -270.0
    vertex 170.0 0.0 -250.0
  endloop
endfacet
facet normal 0.0 0.0 1.0
  outer loop
    vertex 170.0 0.0 -250.0
    vertex 20.000000000000007 20.0 -250.0
    vertex 0.0 0.0 -250.0
  endloop
endfacet
facet normal 0.0 0.0 1.0
  outer loop
    vertex 20.000000000000007 20.0 -250.0
    vertex 170.0 0.0 -250.0
    vertex 170.0 20.0 -250.0
  endloop
endfacet
facet normal -0.13052619222005168 -0.9914448613738105 -6.705116643173806e-32
  outer loop
    vertex 37.329371405922714 48.69333243660161 -17.000000000000014
    vertex 35.00000000000003 48.99999999999999 -20.000000000000007
    vertex 37.329371405922714 48.69333243660161 -20.000000000000007
  endloop
endfacet
facet normal -0.13052619222005168 -0.9914448613738105 -6.705116643173806e-32
  outer loop
    vertex 35.00000000000003 48.99999999999999 -20.000000000000007
    vertex 37.329371405922714 48.69333243660161 -17.000000000000014
    vertex 35.00000000000003 48.99999999999999 -17.000000000000014
  endloop
endfacet
facet normal 1.0 0.0 0.0
  outer loop
    vertex 170.0 20.0 -20.000000000000007
    vertex 170.0 0.0 0.0
    vertex 170.0 0.0 -20.000000000000007
  endloop
endfacet
facet normal 1.0 0.0 0.0
  outer loop
    vertex 170.0 0.0 0.0
    vertex 170.0 20.0 -20.000000000000007
    vertex 170.0 20.0 0.0
  endloop
endfacet
facet normal 0.0 -1.0 0.0
  outer loop
    vertex 202.0 0.0 20.000000000000007
    vertex 170.0 0.0 0.0
    vertex 202.0 0.0 0.0
  endloop
endfacet
facet normal 0.0 -1.0 0.0
  outer loop
    vertex 170.0 0.0 0.0
    vertex 202.0 0.0 20.000000000000007
    vertex 170.0 0.0 20.000000000000007
  endloop
endfacet
facet normal 1.0 0.0 0.0
  outer loop
    vertex 170.0 20.0 0.0
    vertex 170.0 0.0 20.000000000000007
    vertex 170.0 0.0 0.0
  endloop
endfacet
facet normal 0.0 -0.7071067811865476 -0.7071067811865476
  outer loop
    vertex 202.0 0.0 20.000000000000007
    vertex 170.0 20.0 0.0
    vertex 202.0 20.0 0.0
  endloop
endfacet
facet normal 0.0 -0.7071067811865476 -0.7071067811865476
  outer loop
    vertex 170.0 20.0 0.0
    vertex 202.0 0.0 20.000000000000007
    vertex 170.0 0.0 20.000000000000007
  endloop
endfacet
facet normal 0.0 0.0 -1.0
  outer loop
    vertex 20.000000000000032 20.0 -270.0
    vertex 170.0 0.0 -270.0
    vertex 0.0 0.0 -270.0
  endloop
endfacet
facet normal 0.0 0.0 -1.0
  outer loop
    vertex 170.0 0.0 -270.0
    vertex 20.000000000000032 20.0 -270.0
    vertex 50.00000000000003 19.999999999999996 -270.0
  endloop
endfacet
facet normal 0.0 0.0 -1.0
  outer loop
    vertex 170.0 0.0 -270.0
    vertex 50.00000000000003 19.999999999999996 -270.0
    vertex 170.0 20.0 -270.0
  endloop
endfacet
facet normal -0.7071067811865472 0.7071067811865479 -4.720159541615141e-16
  outer loop
    vertex 0.0 0.0 -250.0
    vertex 20.000000000000032 20.0 -270.0
    vertex 0.0 0.0 -270.0
  endloop
endfacet
facet normal -0.7071067811865472 0.7071067811865479 -4.720159541615141e-16
  outer loop
    vertex 20.000000000000032 20.0 -270.0
    vertex 0.0 0.0 -250.0
    vertex 20.000000000000032 20.0 -267.0
  endloop
endfacet
facet normal -0.7071067811865472 0.7071067811865479 -4.720159541615141e-16
  outer loop
    vertex 20.000000000000032 20.0 -267.0
    vertex 0.0 0.0 -250.0
    vertex 20.000000000000007 20.0 -250.0
  endloop
endfacet
facet normal -1.0 0.0 0.0
  outer loop
    vertex 170.0 20.0 -20.000000000000007
    vertex 170.0 0.0 -250.0
    vertex 170.0 0.0 -20.000000000000007
  endloop
endfacet
facet normal -1.0 0.0 0.0
  outer loop
    vertex 170.0 0.0 -250.0
    vertex 170.0 20.0 -20.000000000000007
    vertex 170.0 20.0 -250.0
  endloop
endfacet
facet normal 0.0 -1.0 0.0
  outer loop
    vertex 202.0 0.0 -270.0
    vertex 170.0 0.0 -290.0
    vertex 202.0 0.0 -290.0
  endloop
endfacet
facet normal 0.0 -1.0 0.0
  outer loop
    vertex 170.0 0.0 -290.0
    vertex 202.0 0.0 -270.0
    vertex 170.0 0.0 -270.0
  endloop
endfacet
facet normal -2.744749705741786e-18 1.0 -7.512684708668611e-19
  outer loop
    vertex 20.000000000000007 20.0 -250.0
    vertex 50.00000000000003 19.999999999999996 -267.0
    vertex 20.000000000000032 20.0 -267.0
  endloop
endfacet
facet normal -2.744749705741786e-18 1.0 -7.512684708668611e-19
  outer loop
    vertex 50.00000000000003 19.999999999999996 -267.0
    vertex 170.0 20.0 -270.0
    vertex 50.00000000000003 19.999999999999996 -270.0
  endloop
endfacet
facet normal -2.744749705741786e-18 1.0 -7.512684708668611e-19
  outer loop
    vertex 170.0 20.0 -270.0
    vertex 50.00000000000003 19.999999999999996 -267.0
    vertex 202.0 20.0 -270.0
  endloop
endfacet
facet normal -2.744749705741786e-18 1.0 -7.512684708668611e-19
  outer loop
    vertex 202.0 20.0 -270.0
    vertex 50.00000000000003 19.999999999999996 -267.0
    vertex 170.0 20.0 -250.0
  endloop
endfacet
facet normal -2.744749705741786e-18 1.0 -7.512684708668611e-19
  outer loop
    vertex 202.0 20.0 -270.0
    vertex 170.0 20.0 -250.0
    vertex 202.0 20.0 0.0
  endloop
endfacet
facet normal -2.744749705741786e-18 1.0 -7.512684708668611e-19
  outer loop
    vertex 170.0 20.0 -250.0
    vertex 50.00000000000003 19.999999999999996 -267.0
    vertex 20.000000000000007 20.0 -250.0
  endloop
endfacet
facet normal -2.744749705741786e-18 1.0 -7.512684708668611e-19
  outer loop
    vertex 202.0 20.0 0.0
    vertex 170.0 20.0 -250.0
    vertex 170.0 20.0 -20.000000000000007
  endloop
endfacet
facet normal -2.744749705741786e-18 1.0 -7.512684708668611e-19
  outer loop
    vertex 202.0 20.0 0.0
    vertex 170.0 20.0 -20.000000000000007
    vertex 170.0 20.0 0.0
  endloop
endfacet
facet normal -0.7071067811865474 0.7071067811865478 -5.506852798551006e-16
  outer loop
    vertex 0.0 0.0 0.0
    vertex 20.000000000000025 20.0 -20.000000000000007
    vertex 0.0 0.0 -20.000000000000007
  endloop
endfacet
facet normal -0.7071067811865474 0.7071067811865478 -5.506852798551006e-16
  outer loop
    vertex 20.000000000000025 20.0 -20.000000000000007
    vertex 0.0 0.0 0.0
    vertex 20.000000000000025 20.0 -17.000000000000014
  endloop
endfacet
facet normal -0.7071067811865474 0.7071067811865478 -5.506852798551006e-16
  outer loop
    vertex 20.000000000000025 20.0 -17.000000000000014
    vertex 0.0 0.0 0.0
    vertex 19.999999999999996 20.0 0.0
  endloop
endfacet
facet normal -1.6654538281800342e-18 1.0 -3.8240658790081084e-17
  outer loop
    vertex 19.999999999999996 20.0 0.0
    vertex 50.00000000000002 19.999999999999996 -17.000000000000014
    vertex 20.000000000000025 20.0 -17.000000000000014
  endloop
endfacet
facet normal -1.6654538281800342e-18 1.0 -3.8240658790081084e-17
  outer loop
    vertex 50.00000000000002 19.999999999999996 -17.000000000000014
    vertex 170.0 20.0 -20.000000000000007
    vertex 50.00000000000002 19.999999999999996 -20.000000000000007
  endloop
endfacet
facet normal -1.6654538281800342e-18 1.0 -3.8240658790081084e-17
  outer loop
    vertex 170.0 20.0 -20.000000000000007
    vertex 50.00000000000002 19.999999999999996 -17.000000000000014
    vertex 170.0 20.0 0.0
  endloop
endfacet
facet normal -1.6654538281800342e-18 1.0 -3.8240658790081084e-17
  outer loop
    vertex 170.0 20.0 0.0
    vertex 50.00000000000002 19.999999999999996 -17.000000000000014
    vertex 19.999999999999996 20.0 0.0
  endloop
endfacet
facet normal 0.0 -1.0 0.0
  outer loop
    vertex 170.0 0.0 0.0
    vertex 0.0 0.0 -20.000000000000007
    vertex 170.0 0.0 -20.000000000000007
  endloop
endfacet
facet normal 0.0 -1.0 0.0
  outer loop
    vertex 0.0 0.0 -20.000000000000007
    vertex 170.0 0.0 0.0
    vertex 0.0 0.0 0.0
  endloop
endfacet
endsolid pedalsplate
